{"title":"The Warriors Way 2010 PPVRIP XviD Feel-Free","uid":6216311,"size":775798071,"categoryP":"video","categoryS":"movies","magnet":"?xt=urn:btih:2bd1d18c541aadadc4e8d0c51f9bce28204f1898&amp;dn=The+Warriors+Way+2010+PPVRIP+XviD+Feel-Free&amp;tr=udp%3A%2F%2Ftracker.openbittorrent.com%3A80&amp;tr=udp%3A%2F%2Fopen.demonii.com%3A1337&amp;tr=udp%3A%2F%2Ftracker.coppersurfer.tk%3A6969&amp;tr=udp%3A%2F%2Fexodus.desync.com%3A6969","seeders":0,"leechers":1,"uploader":"hiest","files":-1,"time":1299169095,"description":"Genre:Action | Fantasy | Western\nLanguage:English\nIMDb:http://www.imdb.com/title/tt1032751/\nSource:PPVRIP IFLIX Thx.\n\n\nFormat : AVI\nFormat/Info : Audio Video Interleave\nFile size : 738 MiB\nDuration : 1h 38mn\nOverall bit rate : 1 044 Kbps\n\n\nVideo\nCodec ID/Hint : XviD\nDuration : 1h 38mn\nBit rate : 902 Kbps\nWidth : 720 pixels\nHeight : 400 pixels\nDisplay aspect ratio : 16:9\nFrame rate : 29.970 fps\nColor space : YUV\nChroma subsampling : 4:2:0\nBit depth : 8 bits\nScan type : Progressive\nBits/(Pixel*Frame) : 0.105\nStream size : 638 MiB (86%)\nWriting library : XviD 1.2.1\n\nAudio\nID : 1\nFormat : MPEG Audio\nFormat version : Version 1\nFormat profile : Layer 3\nMode : Joint stereo\nMode extension : MS Stereo\nCodec ID : 55\nCodec ID/Hint : MP3\nDuration : 1h 38mn\nBit rate mode : Constant\nBit rate : 128 Kbps\nChannel(s) : 2 channels\nSampling rate : 44.1 KHz\nStream size : 90.5 MiB (12%)\nAlignment : Aligned on interleaves\nInterleave, duration : 26 ms (0.78 video frame)\nInterleave, preload duration : 522 ms\nWriting library : LAME3.98.2\n\n\nPlot:\nA warrior-assassin is forced to hide in a small town in the American Badlands after refusing a mission.\n\n\n\n\n================================== &lt;a href=&quot;\nhttp://thepiratebay.se/user/hiest&quot; rel=&quot;nofollow&quot; target=&quot;_NEW&quot;&gt;\nhttp://thepiratebay.se/user/hiest&lt;/a&gt;\n==================================\n\n\n\n\nScreenshots:\n &lt;a href=&quot;\nhttp://www.postimg.com/30000/29396.jpg&quot; rel=&quot;nofollow&quot; target=&quot;_NEW&quot;&gt;\nhttp://www.postimg.com/30000/29396.jpg&lt;/a&gt;\n &lt;a href=&quot;\nhttp://www.postimg.com/30000/29397.jpg&quot; rel=&quot;nofollow&quot; target=&quot;_NEW&quot;&gt;\nhttp://www.postimg.com/30000/29397.jpg&lt;/a&gt;\n &lt;a href=&quot;\nhttp://www.postimg.com/30000/29398.jpg&quot; rel=&quot;nofollow&quot; target=&quot;_NEW&quot;&gt;\nhttp://www.postimg.com/30000/29398.jpg&lt;/a&gt;\n &lt;a href=&quot;\nhttp://www.postimg.com/30000/29399.jpg&quot; rel=&quot;nofollow&quot; target=&quot;_NEW&quot;&gt;\nhttp://www.postimg.com/30000/29399.jpg&lt;/a&gt;\n &lt;a href=&quot;\nhttp://www.postimg.com/30000/29400.jpg&quot; rel=&quot;nofollow&quot; target=&quot;_NEW&quot;&gt;\nhttp://www.postimg.com/30000/29400.jpg&lt;/a&gt;","torrent":{"xt":"urn:btih:2bd1d18c541aadadc4e8d0c51f9bce28204f1898","amp;dn":"The+Warriors+Way+2010+PPVRIP+XviD+Feel-Free","amp;tr":["udp%3A%2F%2Ftracker.openbittorrent.com%3A80","udp%3A%2F%2Fopen.demonii.com%3A1337","udp%3A%2F%2Ftracker.coppersurfer.tk%3A6969","udp%3A%2F%2Fexodus.desync.com%3A6969"],"infoHash":"2bd1d18c541aadadc4e8d0c51f9bce28204f1898","infoHashBuffer":{"type":"Buffer","data":[43,209,209,140,84,26,173,173,196,232,208,197,31,155,206,40,32,79,24,152]},"announce":[],"urlList":[]}}